<?xml version="1.0" encoding="UTF-8" standalone="no"?>
<!-- Created with Inkscape (http://www.inkscape.org/) -->

<svg
   xmlns:dc="http://purl.org/dc/elements/1.1/"
   xmlns:cc="http://creativecommons.org/ns#"
   xmlns:rdf="http://www.w3.org/1999/02/22-rdf-syntax-ns#"
   xmlns:svg="http://www.w3.org/2000/svg"
   xmlns="http://www.w3.org/2000/svg"
   xmlns:sodipodi="http://sodipodi.sourceforge.net/DTD/sodipodi-0.dtd"
   xmlns:inkscape="http://www.inkscape.org/namespaces/inkscape"
   width="210mm"
   height="297mm"
   viewBox="0 0 210 297"
   version="1.1"
   id="svg2543"
   inkscape:version="0.92.4 (5da689c313, 2019-01-14)"
   sodipodi:docname="h.svg">
  <defs
     id="defs2537" />
  <sodipodi:namedview
     id="base"
     pagecolor="#ffffff"
     bordercolor="#666666"
     borderopacity="1.0"
     inkscape:pageopacity="0.0"
     inkscape:pageshadow="2"
     inkscape:zoom="0.49497475"
     inkscape:cx="598.65415"
     inkscape:cy="536.10122"
     inkscape:document-units="mm"
     inkscape:current-layer="layer1"
     showgrid="false"
     inkscape:window-width="1920"
     inkscape:window-height="1137"
     inkscape:window-x="-8"
     inkscape:window-y="-8"
     inkscape:window-maximized="1" />
  <metadata
     id="metadata2540">
    <rdf:RDF>
      <cc:Work
         rdf:about="">
        <dc:format>image/svg+xml</dc:format>
        <dc:type
           rdf:resource="http://purl.org/dc/dcmitype/StillImage" />
        <dc:title></dc:title>
      </cc:Work>
    </rdf:RDF>
  </metadata>
  <g
     inkscape:label="Vrstva 1"
     inkscape:groupmode="layer"
     id="layer1">
    <path
       style="fill:#746100;fill-opacity:1;stroke:#000000;stroke-width:3.68489385;stroke-linecap:butt;stroke-linejoin:miter;stroke-miterlimit:4;stroke-dasharray:none;stroke-opacity:1"
       d="m 136.62252,256.69777 c -29.04601,-4.10917 -49.396251,-2.69197 -76.819058,-14.44461 -7.454478,-3.19478 -13.695829,-22.66529 -8.535452,-29.5458 3.005305,-4.00706 8.917429,-7.82351 13.131463,-10.50516 3.343402,-2.12762 7.39817,-4.65464 11.161746,-5.90916 9.425895,-3.14196 58.123091,-3.42763 68.283611,-0.65658 4.80456,1.31034 9.71154,3.6749 14.44461,5.25259 5.47887,1.82629 16.54611,18.91 19.6972,23.63664 4.64946,6.97418 16.29247,19.64987 14.44461,28.88922 -2.4897,12.44847 -38.84572,7.2223 -47.27327,7.2223 -8.72892,0 -34.27492,2.88803 -41.36412,-0.65657"
       id="path3088"
       inkscape:connector-curvature="0" />
    <path
       style="fill:#746100;fill-opacity:1;stroke:#000000;stroke-width:3.68489385;stroke-linecap:butt;stroke-linejoin:miter;stroke-miterlimit:4;stroke-dasharray:none;stroke-opacity:1"
       d="M 135.96595,219.27309 C 116.92178,226.7339 88.564455,195.74485 76.217794,185.78786 69.21589,180.14117 59.563862,175.04309 53.237731,168.71696 42.468033,157.94727 51.35156,151.19442 64.399473,149.01977 c 27.747167,-4.62453 69.242657,-1.21255 92.576817,15.75775 8.92024,6.48745 13.79682,31.34369 4.59601,39.3944 -6.82479,5.97169 -43.8824,13.84203 -53.18242,9.19202"
       id="path3090"
       inkscape:connector-curvature="0" />
    <path
       style="fill:#746100;fill-opacity:1;stroke:#000000;stroke-width:3.68489385;stroke-linecap:butt;stroke-linejoin:miter;stroke-miterlimit:4;stroke-dasharray:none;stroke-opacity:1"
       d="m 111.01617,166.74724 c -6.46243,-1.1864 -13.597212,-1.8266 -19.040619,-5.90916 -1.809442,-1.35708 -4.282207,-2.31249 -5.909161,-3.93944 -4.892305,-4.8923 -8.744449,-26.04653 0,-28.23264 6.070952,-1.51775 36.79884,10.53591 41.36411,15.10117 0.95397,0.95399 0.65657,4.02579 0.65657,5.2526 0,11.181 -3.824,17.58206 -14.44461,21.66692 -6.92841,2.66476 -14.408096,1.96971 -21.666909,1.96971"
       id="path3092"
       inkscape:connector-curvature="0" />
    <path
       style="fill:none;fill-opacity:1;stroke:#000000;stroke-width:3.68489385;stroke-linecap:butt;stroke-linejoin:miter;stroke-miterlimit:4;stroke-dasharray:none;stroke-opacity:1"
       d="m 101.82415,131.29229 c -6.782437,-12.01266 19.93881,-17.78 15.75775,-28.23266 C 111.42899,87.677356 93.918057,78.028213 88.692682,62.352097 87.447819,58.617504 99.090364,60.048286 100.511,55.786366 104.30014,44.418945 94.911953,37.159222 88.692682,28.866862"
       id="path3094"
       inkscape:connector-curvature="0" />
    <path
       style="fill:none;fill-opacity:1;stroke:#000000;stroke-width:3.68489385;stroke-linecap:butt;stroke-linejoin:miter;stroke-miterlimit:4;stroke-dasharray:none;stroke-opacity:1"
       d="m 163.54203,124.06997 c -2.49451,-11.63478 -5.14714,-28.475872 5.90915,-36.768091 2.57655,-1.932414 7.17289,1.058983 9.19203,-1.969719 6.78422,-10.176325 -6.29241,-34.593385 -14.44461,-40.70754"
       id="path3096"
       inkscape:connector-curvature="0" />
    <path
       style="fill:none;fill-opacity:1;stroke:#000000;stroke-width:3.68489385;stroke-linecap:butt;stroke-linejoin:miter;stroke-miterlimit:4;stroke-dasharray:none;stroke-opacity:1"
       d="M 38.136545,151.64605 C 31.757418,142.08433 22.350429,123.0135 30.914242,111.59509 38.850877,101.01291 55.553378,93.370582 46.015423,78.109853 41.052922,70.169849 35.45259,63.6268 27.631375,58.412658"
       id="path3098"
       inkscape:connector-curvature="0" />
  </g>
</svg>
