<?xml version="1.0" encoding="UTF-8" standalone="no"?>
<!-- Created with Inkscape (http://www.inkscape.org/) -->

<svg
   xmlns:dc="http://purl.org/dc/elements/1.1/"
   xmlns:cc="http://creativecommons.org/ns#"
   xmlns:rdf="http://www.w3.org/1999/02/22-rdf-syntax-ns#"
   xmlns:svg="http://www.w3.org/2000/svg"
   xmlns="http://www.w3.org/2000/svg"
   xmlns:sodipodi="http://sodipodi.sourceforge.net/DTD/sodipodi-0.dtd"
   xmlns:inkscape="http://www.inkscape.org/namespaces/inkscape"
   width="200mm"
   height="200mm"
   viewBox="0 0 200 200"
   version="1.1"
   id="svg8"
   inkscape:version="0.92.4 (5da689c313, 2019-01-14)"
   sodipodi:docname="testItem.svg">
  <defs
     id="defs2" />
  <sodipodi:namedview
     id="base"
     pagecolor="#ffffff"
     bordercolor="#666666"
     borderopacity="1.0"
     inkscape:pageopacity="0.0"
     inkscape:pageshadow="2"
     inkscape:zoom="0.7"
     inkscape:cx="482.82215"
     inkscape:cy="222.70155"
     inkscape:document-units="mm"
     inkscape:current-layer="layer1"
     showgrid="false"
     inkscape:window-width="1920"
     inkscape:window-height="1137"
     inkscape:window-x="-8"
     inkscape:window-y="-8"
     inkscape:window-maximized="1" />
  <metadata
     id="metadata5">
    <rdf:RDF>
      <cc:Work
         rdf:about="">
        <dc:format>image/svg+xml</dc:format>
        <dc:type
           rdf:resource="http://purl.org/dc/dcmitype/StillImage" />
        <dc:title></dc:title>
      </cc:Work>
    </rdf:RDF>
  </metadata>
  <g
     inkscape:label="Vrstva 1"
     inkscape:groupmode="layer"
     id="layer1"
     transform="translate(0,-97)">
    <rect
       style="opacity:1;fill:#f3ace3;fill-opacity:1;fill-rule:nonzero;stroke:#1a0000;stroke-width:0.8768065;stroke-linecap:round;stroke-linejoin:miter;stroke-miterlimit:4;stroke-dasharray:none;stroke-opacity:1"
       id="rect815"
       width="199.12318"
       height="199.1232"
       x="0.43840325"
       y="97.438416" />
    <path
       style="fill:none;stroke:#000000;stroke-width:0.26458332px;stroke-linecap:butt;stroke-linejoin:miter;stroke-opacity:1"
       d="m 62.808339,209.33559 c -1.282388,-9.13543 -3.900009,-17.90037 -3.474503,-27.26149 0.309811,-6.81589 3.068277,-13.29107 5.612659,-19.51067 6.922741,-16.92226 8.959156,-21.25106 24.588795,-29.93419 2.118968,-1.1772 4.532762,-1.27856 6.68174,-2.13816 3.346659,-1.33866 12.15265,-0.59729 13.63075,-1.33634 1.45069,-0.72535 3.91072,-1.06908 5.61265,-1.06908 1.09274,0 1.30152,0.7902 2.13816,1.06908 0.53454,0.17818 1.60362,-0.0289 1.60362,0.53454 0,0.43653 -5.21242,1.97128 -5.87993,2.13815 -3.33634,0.83409 -6.74129,5.03382 -8.55263,7.75082 -2.17947,3.26921 -3.98482,6.96371 -6.147195,10.42351 -1.980192,3.16831 -4.45669,6.24069 -6.1472,9.6217 -1.034624,2.06925 -1.184878,4.72887 -2.405425,6.68174 -2.981393,4.77023 -4.687877,10.7602 -6.949008,16.03617 -1.094079,2.55286 -3.330559,4.58463 -4.276313,6.94901 -2.005036,5.01259 -6.741075,8.99791 -8.285355,13.63075 -0.469027,1.40708 -2.49523,2.76464 -2.939965,4.54358 -0.863627,3.45451 -5.08966,1.66178 -4.81085,1.87088 0.672377,0.50429 1.386414,0.96048 2.138156,1.33635 3.39531,1.69766 16.57991,-4.85139 19.510674,-6.41447 6.516549,-3.47549 15.3368,-7.5829 21.114291,-12.02712 2.74933,-2.11487 4.40754,-5.44039 6.94901,-7.75082 6.21126,-5.6466 -3.77209,3.58886 3.74177,-2.6727 4.66489,-3.8874 8.17624,-11.32338 9.62171,-17.10524 1.06664,-4.26657 1.51214,-8.71415 2.13815,-13.09621 0.49784,-3.48489 2.31659,-6.59517 2.6727,-10.15624 0.14461,-1.44619 0.53454,-2.59886 0.53454,-4.00905 0,-0.35636 -0.35636,-1.06907 0,-1.06907 0.9846,0 3.79729,0.78675 4.81085,2.13815 4.53514,6.04686 1.83429,17.43462 1.06908,24.32153 -0.49868,4.48808 -0.43172,12.85627 -2.13816,16.83798 -8.33564,19.44983 -28.88257,32.60688 -49.979401,32.60688 -5.97631,0 -11.654343,-0.80181 -17.639789,-0.80181 -0.928489,0 -3.032713,0.17452 -3.741772,-0.53454 -0.422593,-0.42259 -0.53454,-2.13815 -0.801809,-1.60362 -1.293972,2.58795 0.156144,7.84086 0.801809,10.42352 1.420857,5.68343 4.608237,10.94076 5.34539,16.83798 0.344482,2.75587 0,5.772 0,8.55262 0,1.06616 0.441558,3.39319 0,4.27631 -1.971699,3.9434 -14.262727,6.70587 -17.907058,4.27632 -1.563113,-1.04208 -2.504998,-5.20915 -2.939965,-6.94901 -2.555526,-10.2221 -0.04205,-17.16228 1.870887,-26.72696 0.509924,-2.54962 5.295818,-10.7452 7.216275,-11.22531 1.160362,-0.2901 2.336975,-0.51743 3.474506,-0.80181 0.273314,-0.0683 0.801809,-0.549 0.801809,-0.26727 0,0.15645 -3.906065,1.95303 -4.276315,2.13815 -6.269651,3.13483 -12.038809,7.07687 -18.174327,10.42352 -9.436179,5.147 -14.786002,9.08716 -25.925143,9.08716 -6.2383296,0 -9.0749214,-2.70873 -10.4235119,-8.55263 -1.6080416,-6.96818 -1.1147894,-15.7315 4.8108515,-20.57975 2.1062098,-1.72326 4.8589584,-2.21727 7.2162774,-3.4745 7.012793,-3.74016 15.646553,-6.78443 23.786988,-5.87993 3.229534,0.35883 7.323815,4.11623 10.690781,5.61266 4.571767,2.03189 12.76577,8.07156 13.630746,12.82893 0.106315,0.58475 -0.267269,2.09895 -0.267269,2.93997"
       id="path2648"
       inkscape:connector-curvature="0" />
    <path
       style="fill:none;stroke:#000000;stroke-width:0.26458332px;stroke-linecap:butt;stroke-linejoin:miter;stroke-opacity:1"
       d="m 62.54107,212.27556 c -1.692709,1.33635 -3.385415,2.67269 -5.078122,4.00904 -0.08909,0.17818 -0.147743,0.37517 -0.267271,0.53454 -1.139418,1.51922 -3.326117,2.73257 -3.741772,4.81085 -0.913156,4.56579 -1.769938,11.73006 -0.801809,16.57071 0.254995,1.27498 1.165812,7.0627 3.741774,5.34539 0.613881,-0.40925 1.409825,-2.18821 1.603616,-2.67269 0.575929,-1.43982 2.024859,-2.71337 2.672697,-4.00905 3.370426,-6.74085 1.870884,-17.00132 1.870887,-24.58879"
       id="path2650"
       inkscape:connector-curvature="0" />
    <path
       style="fill:none;stroke:#000000;stroke-width:0.26458332px;stroke-linecap:butt;stroke-linejoin:miter;stroke-opacity:1"
       d="m 46.237628,201.31751 c -9.8596,-2.48907 -19.465031,3.30664 -26.459683,8.55262 -0.423359,0.31752 -1.404618,0.47208 -1.603617,1.06908 -0.154938,0.46481 -1.210675,4.13472 -0.801809,4.54358 1.653705,1.65371 7.290611,-0.41329 9.621704,-0.80181 4.718322,-0.78638 12.186856,0.45468 16.303439,-1.60361 0.527069,-0.26353 0.943274,-1.88133 1.33635,-2.40543 0.72975,-0.973 6.230334,-11.66779 1.603616,-9.35443 z"
       id="path2652"
       inkscape:connector-curvature="0" />
  </g>
</svg>
