<?xml version="1.0" encoding="UTF-8" standalone="no"?>
<!-- Created with Inkscape (http://www.inkscape.org/) -->

<svg
   xmlns:dc="http://purl.org/dc/elements/1.1/"
   xmlns:cc="http://creativecommons.org/ns#"
   xmlns:rdf="http://www.w3.org/1999/02/22-rdf-syntax-ns#"
   xmlns:svg="http://www.w3.org/2000/svg"
   xmlns="http://www.w3.org/2000/svg"
   xmlns:sodipodi="http://sodipodi.sourceforge.net/DTD/sodipodi-0.dtd"
   xmlns:inkscape="http://www.inkscape.org/namespaces/inkscape"
   width="200mm"
   height="100mm"
   viewBox="0 0 200 100"
   version="1.1"
   id="svg2049"
   inkscape:version="0.92.4 (5da689c313, 2019-01-14)"
   sodipodi:docname="poklop.svg">
  <defs
     id="defs2043" />
  <sodipodi:namedview
     id="base"
     pagecolor="#ffffff"
     bordercolor="#666666"
     borderopacity="1.0"
     inkscape:pageopacity="0.0"
     inkscape:pageshadow="2"
     inkscape:zoom="0.7"
     inkscape:cx="459.93251"
     inkscape:cy="35.647598"
     inkscape:document-units="mm"
     inkscape:current-layer="layer1"
     showgrid="false"
     inkscape:window-width="1920"
     inkscape:window-height="1137"
     inkscape:window-x="-8"
     inkscape:window-y="-8"
     inkscape:window-maximized="1" />
  <metadata
     id="metadata2046">
    <rdf:RDF>
      <cc:Work
         rdf:about="">
        <dc:format>image/svg+xml</dc:format>
        <dc:type
           rdf:resource="http://purl.org/dc/dcmitype/StillImage" />
        <dc:title></dc:title>
      </cc:Work>
    </rdf:RDF>
  </metadata>
  <g
     inkscape:label="Vrstva 1"
     inkscape:groupmode="layer"
     id="layer1"
     transform="translate(0,-197)">
    <rect
       style="opacity:1;fill:#b37300;fill-opacity:1;fill-rule:nonzero;stroke:#000000;stroke-width:0.87064439;stroke-linecap:round;stroke-linejoin:bevel;stroke-miterlimit:4;stroke-dasharray:none;stroke-opacity:1"
       id="rect2594"
       width="199.12936"
       height="99.129356"
       x="0.4353222"
       y="197.43532" />
    <path
       style="fill:none;stroke:#000000;stroke-width:0.26458332px;stroke-linecap:butt;stroke-linejoin:miter;stroke-opacity:1"
       d="m 86.178571,257.12351 c 0,8.69346 0,17.38691 0,26.08036 0,0.60645 -0.445687,4.468 0,4.91369 0.393994,0.394 3.507238,0 3.96875,0 7.312756,0 14.602029,0.56696 21.922619,0.56696 3.91256,0 7.3846,1.07328 11.1503,1.7009 0.51241,0.0854 1.14457,0.7453 1.5119,0.37797 0.85099,-0.85098 0.18899,-4.75671 0.18899,-5.85863 0,-7.43353 0,-14.86706 0,-22.30059 0,-0.63558 0.41088,-3.74686 0,-4.15774 -0.40311,-0.40311 -5.43436,1.10778 -7.37054,1.32291 -5.4683,0.60759 -11.71073,0.75759 -17.00892,-0.56696 -5.036065,-1.25902 -9.760214,1.3733 -14.363099,-2.07887 z"
       id="path2598"
       inkscape:connector-curvature="0" />
    <path
       style="fill:none;stroke:#000000;stroke-width:0.26458332px;stroke-linecap:butt;stroke-linejoin:miter;stroke-opacity:1"
       d="m 93.549106,268.27381 c 0.797171,1.22258 -1.020656,5.21595 0,6.23661 0.313288,0.31328 4.182645,-1.18374 4.346726,-1.51191 0.351314,-0.70263 -0.812459,-1.98343 -0.944941,-2.64583 -0.08626,-0.43133 0.09458,-1.65361 -0.377976,-1.88988 -0.625109,-0.31256 -2.163942,0.56696 -3.023809,0.56696"
       id="path2600"
       inkscape:connector-curvature="0" />
    <path
       style="fill:none;stroke:#000000;stroke-width:0.26458332px;stroke-linecap:butt;stroke-linejoin:miter;stroke-opacity:1"
       d="m 100.91964,269.02976 c 0.19346,1.09619 -0.18899,2.15143 -0.18899,3.2128 0,1.87201 -0.816037,3.86279 1.13393,3.2128 0.46353,-0.15451 1.95534,-0.44343 2.26786,-0.75596 0.34269,-0.34268 1.18854,-5.07537 1.13393,-5.10267 -1.90509,-0.95255 -4.85803,0.75595 -6.803573,0.75595"
       id="path2602"
       inkscape:connector-curvature="0" />
    <path
       style="fill:none;stroke:#000000;stroke-width:0.26458332px;stroke-linecap:butt;stroke-linejoin:miter;stroke-opacity:1"
       d="m 108.66815,270.16369 c 0.0983,0.42866 -0.81185,5.39902 -0.56696,5.48065 1.35579,0.45193 3.66084,0 5.10268,0 0.045,0 1.04995,0.084 1.13393,0 0.10312,-0.10312 0.24832,-4.18117 0,-4.34672 -1.41449,-0.94299 -3.992,-0.2951 -5.66965,-1.13393 z"
       id="path2604"
       inkscape:connector-curvature="0" />
    <path
       style="fill:none;stroke:#000000;stroke-width:0.26458332px;stroke-linecap:butt;stroke-linejoin:miter;stroke-opacity:1"
       d="m 94.494047,279.23512 c 0.503867,0.62868 -1.116933,5.11967 -0.755954,5.48065 0.236524,0.23653 1.092861,-0.1123 1.322917,-0.18899 0.63074,-0.21024 1.672891,0.29749 2.267857,0 0.859369,-0.42968 1.198068,-4.78712 0.944941,-4.91369 -0.385572,-0.19278 -1.647608,-0.0539 -2.078868,0 -1.241626,0.15521 -2.616629,0.36825 -3.779764,0.75596"
       id="path2606"
       inkscape:connector-curvature="0" />
    <path
       style="fill:none;stroke:#000000;stroke-width:0.26458332px;stroke-linecap:butt;stroke-linejoin:miter;stroke-opacity:1"
       d="m 101.48661,279.42411 c 0.95183,3.52954 -1.678571,5.28422 2.26785,3.96875 0.97717,-0.32573 2.49077,0.45551 3.40179,0 0.43887,-0.21944 -0.3434,-3.70524 -0.56697,-3.77977 -1.44403,-0.48134 -3.56557,0.0672 -5.10267,-0.18898 z"
       id="path2608"
       inkscape:connector-curvature="0" />
    <path
       style="fill:none;stroke:#000000;stroke-width:0.26458332px;stroke-linecap:butt;stroke-linejoin:miter;stroke-opacity:1"
       d="m 111.50297,279.99107 c 0.61156,0.16183 -0.30989,4.34673 -0.18898,4.34673 0.6896,0 2.65784,-0.50797 3.40178,-0.75596 0.26421,-0.0881 0.99225,-4.13408 0.94494,-4.15773 -0.56672,-0.28336 -1.06727,0.22976 -1.5119,0.37797 -1.21456,0.40486 -2.91497,0.35047 -3.59078,0.75595"
       id="path2610"
       inkscape:connector-curvature="0" />
    <path
       style="fill:none;stroke:#000000;stroke-width:0.26458332px;stroke-linecap:butt;stroke-linejoin:miter;stroke-opacity:1"
       d="m 93.171131,262.60417 c -0.409665,0.966 -0.287399,2.13028 -0.18899,3.2128 0.0329,0.36192 0.236757,2.51603 0.755952,2.64583 0.907177,0.22679 1.439423,-0.42889 2.267857,-0.56697 2.20571,-0.36761 5.95408,-0.43448 8.12649,0 1.16338,0.23268 11.44072,2.82094 11.71726,2.26786 0.28005,-0.56009 -0.44983,-2.06018 -0.56696,-2.64583 -0.0693,-0.34624 -0.36182,-2.23554 -0.56697,-2.64584 -0.10927,-0.21854 -7.43216,-0.18898 -8.31547,-0.18898 -2.07887,0 -4.15774,0 -6.23661,0 -1.190792,0 -4.463841,0.65391 -5.291667,0.37797 -0.88033,-0.29344 -1.728827,-1.13393 -2.645833,-1.13393"
       id="path2612"
       inkscape:connector-curvature="0" />
    <path
       style="opacity:1;fill:#d9d9d9;fill-opacity:1;fill-rule:nonzero;stroke:#000000;stroke-width:1.90894973;stroke-linecap:round;stroke-linejoin:bevel;stroke-miterlimit:4;stroke-dasharray:none;stroke-opacity:1"
       d="m 469.62152,354.13601 c -0.41669,-0.16271 -1.27464,-0.5407 -1.90656,-0.83999 -1.30889,-0.61992 -22.90242,-4.99761 -29.52961,-5.98659 -5.81096,-0.86717 -10.20645,-1.10312 -26.01626,-1.39657 -7.56983,-0.14051 -21.18614,-0.53711 -30.25846,-0.88134 -9.07232,-0.34423 -21.79548,-0.75022 -28.27367,-0.9022 -10.45987,-0.24539 -12.39979,-0.22808 -17.32757,0.15466 -6.01573,0.46725 -9.57495,0.39698 -10.17276,-0.20084 -0.69413,-0.69412 -0.89002,-3.69139 -0.55349,-8.46863 0.23174,-3.28973 0.33741,-18.11123 0.39874,-55.93046 0.0459,-28.30005 0.13543,-51.45464 0.19895,-51.45464 0.0635,0 0.71432,0.3826 1.44622,0.85023 5.102,3.25978 10.42848,4.91828 17.61944,5.48613 2.99305,0.23635 5.34521,0.21016 12.87944,-0.14341 12.25171,-0.57495 14.68194,-0.41969 23.73859,1.51655 12.46929,2.66585 22.97135,3.59436 37.50191,3.31563 8.63468,-0.16563 12.65743,-0.39554 20.77102,-1.18716 5.78451,-0.56437 7.86278,-0.93409 16.96917,-3.0188 8.44866,-1.93414 11.58648,-2.52602 13.39154,-2.52602 1.46544,0 1.48448,0.009 1.67044,0.82075 0.25689,1.12086 0.17884,6.83752 -0.13913,10.19066 -0.16797,1.77138 -0.26103,18.33283 -0.26117,46.48036 -1.8e-4,37.91737 0.0533,44.34382 0.40245,48.35919 0.24759,2.84754 0.3665,6.28467 0.30878,8.92576 -0.0813,3.71869 -0.16601,4.45307 -0.63144,5.47297 -0.65558,1.43654 -1.19462,1.76671 -2.22657,1.36376 z M 358.17603,331.61139 c 2.06629,-0.65417 2.13693,-0.65908 4.9065,-0.34139 3.18354,0.36518 4.7007,0.24657 5.44394,-0.42557 1.56919,-1.4191 2.93194,-6.67407 3.46401,-13.35776 0.27525,-3.45748 0.14521,-5.14592 -0.43161,-5.604 -0.78396,-0.62259 -6.83459,-0.34114 -12.61219,0.58667 -1.02679,0.16489 -1.07329,0.1445 -1.07329,-0.47061 0,-1.03233 -0.25534,-1.50141 -0.64242,-1.18016 -0.20729,0.17204 -0.28121,0.58082 -0.19788,1.09431 l 0.13301,0.81968 -2.61368,0.55546 c -3.75353,0.79771 -5.26532,1.2879 -5.26532,1.70723 0,0.46691 -0.0935,0.47757 3.28299,-0.37389 3.30613,-0.8337 4.2513,-0.99019 4.31347,-0.71415 0.11678,0.51844 -0.42184,3.37039 -1.65659,8.77146 -1.75787,7.68933 -1.84714,8.38589 -1.16248,9.07054 0.69433,0.69434 1.57645,0.66477 4.11154,-0.13782 z m 65.64505,-1.49735 c 2.48759,-0.4634 8.93826,-2.08931 9.74225,-2.45556 0.8582,-0.39095 1.72519,-3.4349 3.21435,-11.28548 0.82318,-4.3396 0.83545,-5.2012 0.077,-5.40445 -1.10613,-0.29643 -1.80856,-0.14818 -3.9543,0.83458 -2.13443,0.97758 -5.41547,1.76218 -9.04989,2.1641 -1.31752,0.14571 -1.6023,0.10804 -1.73165,-0.22904 -0.20835,-0.54297 -0.60585,-0.51297 -0.60585,0.0457 0,0.34429 -0.41209,0.5553 -1.76521,0.90387 -1.85334,0.47744 -2.10449,0.63167 -1.80847,1.11064 0.13583,0.21979 0.43129,0.20816 1.18289,-0.0465 0.55101,-0.18673 1.38869,-0.4221 1.86152,-0.52304 l 0.85969,-0.18353 -0.14686,2.86967 c -0.0808,1.57832 -0.44716,4.89783 -0.81419,7.37669 -0.36703,2.47885 -0.60613,4.66647 -0.53135,4.86136 0.17428,0.45416 0.86452,0.44641 3.47006,-0.039 z m -33.37027,-2.61609 c 2.76099,-0.88585 4.40124,-0.96701 8.08122,-0.39986 3.93001,0.60569 6.20754,0.41536 7.00794,-0.58563 1.09435,-1.36863 -1.03798,-13.59471 -2.53652,-14.54351 -1.12302,-0.71105 -4.00981,-0.91524 -11.98356,-0.84765 -4.34002,0.0368 -7.89134,0.12375 -7.89182,0.19325 -5e-4,0.0695 0.16763,0.92182 0.37356,1.89403 0.49092,2.31769 0.48368,7.01064 -0.016,10.37413 -0.41763,2.81109 -0.34666,3.70728 0.35574,4.49252 0.36548,0.40858 0.67702,0.45326 2.31631,0.33227 1.04748,-0.0773 2.96634,-0.48384 4.29314,-0.90955 z m 29.16816,-29.33856 c 1.66675,-0.14718 5.24357,-0.34426 7.94848,-0.43794 l 4.91803,-0.17032 0.20792,-1.13643 c 0.27601,-1.50857 0.3653,-13.75553 0.1091,-14.96366 -0.16241,-0.76581 -0.39666,-1.04762 -1.22,-1.46765 -1.88421,-0.96125 -4.75325,-1.502 -10.0695,-1.89787 -5.77249,-0.42984 -8.00031,-0.81095 -9.94505,-1.70129 l -1.31924,-0.60396 -0.0336,1.66779 c -0.0185,0.91728 -0.43965,4.54569 -0.93589,8.06314 -0.94625,6.70708 -1.33283,10.38325 -1.1945,11.35905 0.19229,1.35639 4.86235,1.87834 11.53428,1.28914 z m -32.47436,-1.78237 c 4.55527,-1.21222 6.38967,-1.94841 6.93721,-2.78406 0.95853,-1.46291 4.45101,-17.95306 4.06193,-19.17893 -0.48644,-1.53264 -6.89669,-1.86944 -11.98609,-0.62976 -1.5973,0.38908 -3.14771,0.7644 -3.44536,0.83405 -0.48282,0.11299 -0.56002,-0.0104 -0.71595,-1.14415 -0.13051,-0.9489 -0.2653,-1.23606 -0.53212,-1.13367 -0.24517,0.0941 -0.35733,0.55245 -0.35733,1.46036 v 1.32324 l -2.84105,0.70305 c -1.56258,0.38668 -3.55132,0.76058 -4.41942,0.83089 -1.34504,0.10894 -1.57836,0.19968 -1.57836,0.61381 0,0.43374 0.12894,0.46887 1.19955,0.32685 1.8922,-0.25102 4.87333,-0.8569 6.22882,-1.26594 0.68266,-0.206 1.29532,-0.32043 1.36146,-0.25428 0.0661,0.0661 -0.0649,1.79939 -0.29128,3.85166 -0.67576,6.12697 -1.22582,13.78855 -1.0478,14.59454 0.4577,2.07228 1.21677,2.86891 2.75383,2.89007 0.40392,0.006 2.5063,-0.46142 4.67196,-1.03773 z m -29.13751,-3.63335 c 3.16512,-0.91722 6.67105,-2.25328 9.62976,-3.66975 2.28935,-1.09603 2.59731,-1.32301 2.85521,-2.10447 0.41195,-1.24822 0.0303,-2.46134 -1.95439,-6.21211 l -1.67036,-3.15673 -0.1678,-3.03648 c -0.18911,-3.42221 -0.54232,-4.41613 -1.74662,-4.91497 -1.02536,-0.42472 -2.63995,-0.19387 -6.01861,0.86055 -3.98471,1.24354 -4.34389,1.30155 -4.34389,0.7016 0,-0.42079 0.21717,-0.51182 1.45209,-0.60867 0.92966,-0.0729 2.31525,-0.48173 3.85121,-1.13632 3.60571,-1.53667 9.00459,-2.14024 19.06663,-2.13153 9.45671,0.008 11.22163,0.22728 21.71828,2.69619 20.37696,4.79285 32.31932,7.19083 35.81165,7.19083 1.55319,0 1.9428,-0.43724 1.9428,-2.18031 0,-0.95533 -0.34976,-2.46174 -1.12453,-4.84332 -0.61849,-1.90119 -1.42038,-5.07682 -1.782,-7.05696 -0.81923,-4.48604 -1.31059,-6.40092 -1.75822,-6.85209 -0.62547,-0.6304 -5.71866,-0.7529 -31.95328,-0.76853 l -25.63262,-0.0153 -5.17703,0.64277 c -2.84737,0.35353 -6.71121,0.70912 -8.5863,0.79022 l -3.40927,0.14746 -2.52538,-1.34082 c -1.38896,-0.73745 -3.07913,-1.62622 -3.75594,-1.97506 l -1.23057,-0.63424 0.15118,-1.44641 c 0.0832,-0.79552 0.30894,-1.90432 0.50177,-2.46401 0.3068,-0.89048 0.30305,-1.03586 -0.03,-1.16368 -0.20936,-0.0803 -0.41648,-0.11023 -0.46028,-0.0664 -0.21165,0.21165 -0.85823,3.17122 -0.85823,3.92833 v 0.8595 l -1.15855,-0.17374 c -1.03392,-0.15505 -1.14917,-0.12417 -1.07122,0.287 0.0594,0.3135 0.35358,0.48637 0.9205,0.54095 0.45824,0.0441 0.87982,0.21458 0.93686,0.3788 0.057,0.16423 0.27925,2.34416 0.49381,4.84428 0.46507,5.41909 1.10235,8.70925 2.09577,10.82009 1.06811,2.26952 1.05518,4.49715 -0.0655,11.28157 -1.22288,7.4034 -1.18096,10.6746 0.15746,12.28729 0.4358,0.52511 2.4666,0.39837 4.89561,-0.30553 z"
       id="path2616"
       inkscape:connector-curvature="0"
       transform="matrix(0.26458333,0,0,0.26458333,0,197)" />
    <path
       style="opacity:1;fill:#b3bcff;fill-opacity:1;fill-rule:nonzero;stroke:#000000;stroke-width:3.81789947;stroke-linecap:round;stroke-linejoin:bevel;stroke-miterlimit:4;stroke-dasharray:none;stroke-opacity:1"
       d="m 434.2014,276.16793 c -6.69612,-1.12378 -14.81067,-2.80932 -28.03174,-5.82271 -15.33444,-3.49507 -15.83444,-3.57387 -24.24366,-3.82059 -10.20448,-0.2994 -17.57811,0.40143 -22.56876,2.14506 -4.52315,1.5803 -4.77321,1.57477 -5.64215,-0.12464 -1.01597,-1.98697 -2.81131,-14.2684 -2.0858,-14.2684 0.18319,0 1.75556,0.79549 3.49414,1.76777 3.75142,2.09791 5.85363,2.22427 16.12403,0.96918 8.90545,-1.08828 61.21178,-0.8919 61.90627,0.23243 0.23664,0.38309 0.80848,2.65593 1.27076,5.05076 0.46229,2.39482 1.2784,5.71793 1.8136,7.38468 0.5352,1.66676 1.03456,3.82582 1.1097,4.79792 0.14632,1.89316 -0.34764,2.15824 -3.14639,1.68854 z"
       id="path2618"
       inkscape:connector-curvature="0"
       transform="matrix(0.26458333,0,0,0.26458333,0,197)" />
    <path
       style="opacity:1;fill:#5b4c4c;fill-opacity:1;fill-rule:nonzero;stroke:#000000;stroke-width:3.81789947;stroke-linecap:round;stroke-linejoin:bevel;stroke-miterlimit:4;stroke-dasharray:none;stroke-opacity:1"
       d="m 411.47297,297.3687 c -0.97228,-0.12792 -1.96777,-0.42775 -2.21222,-0.66628 -0.25531,-0.24914 0.0584,-4.43837 0.73708,-9.84424 1.12717,-8.97767 1.22893,-9.39681 2.21221,-9.11202 0.56688,0.16419 3.07625,0.52518 5.57638,0.80222 9.11152,1.00963 12.09812,1.52091 13.23479,2.26569 1.1018,0.72193 1.15988,1.05974 1.15988,6.74612 0,3.29238 -0.13565,6.66441 -0.30145,7.49342 l -0.30146,1.50727 -6.3908,0.33406 c -3.51495,0.18373 -7.64087,0.41782 -9.16873,0.5202 -1.52785,0.10238 -3.57341,0.0815 -4.54568,-0.0464 z"
       id="path2620"
       inkscape:connector-curvature="0"
       transform="matrix(0.26458333,0,0,0.26458333,0,197)" />
    <path
       style="opacity:1;fill:#5b4c4c;fill-opacity:1;fill-rule:nonzero;stroke:#000000;stroke-width:3.81789947;stroke-linecap:round;stroke-linejoin:bevel;stroke-miterlimit:4;stroke-dasharray:none;stroke-opacity:1"
       d="m 381.42074,296.00776 c -0.91115,-0.66625 -0.92445,-1.0644 -0.3183,-9.53328 0.34791,-4.86089 0.75021,-9.28788 0.894,-9.83775 0.36584,-1.39898 6.88732,-2.8674 11.44551,-2.57716 1.83977,0.11715 3.48496,0.35292 3.65598,0.52395 0.33715,0.33715 -0.75361,6.60302 -2.38152,13.68071 -1.20689,5.24719 -1.43232,5.45482 -7.8352,7.21643 -2.44367,0.67232 -4.45801,1.2224 -4.47631,1.2224 -0.0183,0 -0.46118,-0.31289 -0.98416,-0.6953 z"
       id="path2622"
       inkscape:connector-curvature="0"
       transform="matrix(0.26458333,0,0,0.26458333,0,197)" />
    <path
       style="opacity:1;fill:#5b4c4c;fill-opacity:1;fill-rule:nonzero;stroke:#000000;stroke-width:3.81789947;stroke-linecap:round;stroke-linejoin:bevel;stroke-miterlimit:4;stroke-dasharray:none;stroke-opacity:1"
       d="m 353.42431,291.71791 c -0.76768,-1.43443 -0.67799,-3.59817 0.46665,-11.25808 0.55377,-3.70576 1.00834,-6.99027 1.01016,-7.29891 0.004,-0.70721 7.49631,-2.87346 9.13664,-2.64174 1.10992,0.15679 1.25855,0.49336 1.63748,3.70798 0.27842,2.36197 0.99346,4.7091 2.15417,7.07107 2.35333,4.78887 2.28365,5.50917 -0.67689,6.99725 -2.57403,1.29382 -8.9537,3.55098 -11.58163,4.09764 -1.29481,0.26935 -1.71115,0.13839 -2.14658,-0.67521 z"
       id="path2624"
       inkscape:connector-curvature="0"
       transform="matrix(0.26458333,0,0,0.26458333,0,197)" />
    <path
       style="opacity:1;fill:#5b4c4c;fill-opacity:1;fill-rule:nonzero;stroke:#000000;stroke-width:3.81789947;stroke-linecap:round;stroke-linejoin:bevel;stroke-miterlimit:4;stroke-dasharray:none;stroke-opacity:1"
       d="m 354.6868,331.10474 c -0.15374,-0.24876 0.55443,-4.31614 1.5737,-9.03862 l 1.85323,-8.58633 4.3642,-0.55968 c 2.40031,-0.30783 5.3474,-0.55969 6.5491,-0.55969 h 2.1849 l -0.29114,5.17703 c -0.32178,5.72175 -1.4584,10.69509 -2.78074,12.16725 -0.75023,0.83524 -1.33162,0.91951 -4.51002,0.65366 -2.00682,-0.16785 -4.16602,-0.11457 -4.79823,0.11839 -2.24736,0.82816 -3.86941,1.0739 -4.145,0.62799 z"
       id="path2626"
       inkscape:connector-curvature="0"
       transform="matrix(0.26458333,0,0,0.26458333,0,197)" />
    <path
       style="opacity:1;fill:#5b4c4c;fill-opacity:1;fill-rule:nonzero;stroke:#000000;stroke-width:3.81789947;stroke-linecap:round;stroke-linejoin:bevel;stroke-miterlimit:4;stroke-dasharray:none;stroke-opacity:1"
       d="m 384.38381,319.98303 0.0676,-7.52968 6.1706,-0.3588 c 3.39384,-0.19734 7.47618,-0.16142 9.07187,0.0798 l 2.90126,0.4386 0.93366,3.03046 c 0.51351,1.66675 0.97685,4.73509 1.02965,6.81853 l 0.096,3.78807 -6.11014,-0.16872 c -4.51358,-0.12463 -6.8141,0.0403 -8.80424,0.63135 -1.48175,0.44003 -3.30829,0.80006 -4.05896,0.80006 h -1.36486 z"
       id="path2628"
       inkscape:connector-curvature="0"
       transform="matrix(0.26458333,0,0,0.26458333,0,197)" />
    <path
       style="opacity:1;fill:#5b4c4c;fill-opacity:1;fill-rule:nonzero;stroke:#000000;stroke-width:3.81789947;stroke-linecap:round;stroke-linejoin:bevel;stroke-miterlimit:4;stroke-dasharray:none;stroke-opacity:1"
       d="m 421.30093,328.39659 c 0.50088,-2.26987 1.28371,-9.09011 1.28371,-11.18394 v -2.14574 l 3.84706,-0.59809 c 2.11589,-0.32895 4.87219,-1.05155 6.12512,-1.60578 3.40475,-1.50608 4.20944,-1.37377 3.85445,0.6338 -0.80876,4.57372 -2.753,12.74072 -3.12058,13.10831 -0.46919,0.46918 -9.95809,2.91261 -11.34701,2.92189 -0.66518,0.004 -0.82943,-0.28443 -0.64275,-1.13045 z"
       id="path2630"
       inkscape:connector-curvature="0"
       transform="matrix(0.26458333,0,0,0.26458333,0,197)" />
  </g>
</svg>
