<?xml version="1.0" encoding="UTF-8" standalone="no"?>
<!-- Created with Inkscape (http://www.inkscape.org/) -->

<svg
   xmlns:dc="http://purl.org/dc/elements/1.1/"
   xmlns:cc="http://creativecommons.org/ns#"
   xmlns:rdf="http://www.w3.org/1999/02/22-rdf-syntax-ns#"
   xmlns:svg="http://www.w3.org/2000/svg"
   xmlns="http://www.w3.org/2000/svg"
   xmlns:sodipodi="http://sodipodi.sourceforge.net/DTD/sodipodi-0.dtd"
   xmlns:inkscape="http://www.inkscape.org/namespaces/inkscape"
   width="20mm"
   height="37.554001mm"
   viewBox="0 0 20 37.554001"
   version="1.1"
   id="svg8"
   inkscape:version="0.92.4 (5da689c313, 2019-01-14)"
   sodipodi:docname="testItem.svg">
  <defs
     id="defs2" />
  <sodipodi:namedview
     id="base"
     pagecolor="#ffffff"
     bordercolor="#666666"
     borderopacity="1.0"
     inkscape:pageopacity="0.0"
     inkscape:pageshadow="2"
     inkscape:zoom="1.4"
     inkscape:cx="-54.399437"
     inkscape:cy="147.37523"
     inkscape:document-units="mm"
     inkscape:current-layer="layer1"
     showgrid="false"
     inkscape:window-width="1920"
     inkscape:window-height="1137"
     inkscape:window-x="-8"
     inkscape:window-y="-8"
     inkscape:window-maximized="1" />
  <metadata
     id="metadata5">
    <rdf:RDF>
      <cc:Work
         rdf:about="">
        <dc:format>image/svg+xml</dc:format>
        <dc:type
           rdf:resource="http://purl.org/dc/dcmitype/StillImage" />
        <dc:title></dc:title>
      </cc:Work>
    </rdf:RDF>
  </metadata>
  <g
     inkscape:label="Vrstva 1"
     inkscape:groupmode="layer"
     id="layer1"
     transform="translate(0,-259.446)">
    <g
       id="g1428"
       transform="matrix(0.20170469,0,0,0.20170469,-3.7762828,241.81186)">
      <path
         inkscape:connector-curvature="0"
         id="path1404"
         d="m 67.27976,172.83482 c -0.375494,10.4877 -0.188987,21.18986 -0.188987,31.75 0,3.49171 1.118508,6.48477 1.889882,9.82738 1.366319,5.92072 2.114156,11.85842 3.590772,17.76488 1.155387,4.62155 1.355502,9.51457 3.401787,13.60714 1.449742,2.89949 3.134961,5.47506 4.346726,8.50447 1.515298,3.78824 2.553197,7.75222 4.346726,11.33928 0.270563,0.54113 1.473152,5.48066 1.889881,5.48066 0.365911,0 0.658654,-2.35955 0.944941,-2.64583 0.74132,-0.74132 2.645833,-10.42938 2.645833,-11.90625 0,-2.82623 1.32651,-6.06559 1.889879,-8.88244 0.332735,-1.66367 -0.02363,-3.59065 0.18899,-5.29167 0.651282,-5.21026 -0.651283,-10.66474 0,-15.875 0.143777,-1.15022 0.592465,-2.25739 0.755951,-3.40179 0.815629,-5.70939 0,-14.18592 0,-20.22172 0,-2.8659 0.566505,-6.42789 0,-9.26042 -0.244274,-1.22137 -0.755951,-2.5262 -0.755951,-3.77976 0,-0.63468 -3.731501,-17.5035 -3.779764,-17.57589 -0.34576,-0.51865 -1.141547,-1.01048 -1.511903,-1.13393 -0.125992,-0.25198 -0.377976,-0.47423 -0.377975,-0.75595 0,-0.69752 6.941237,-8.27699 8.504464,-9.44941 1.133614,-0.85021 2.76101,-1.2491 3.779762,-2.26786 1.911466,-1.91146 3.050846,-4.38277 4.724706,-6.61458 9.04577,-12.06103 14.44495,-22.16215 10.58333,-37.60863 -1.46265,-5.8506 -5.60276,-9.46729 -10.96131,-11.52827 -2.73407,-1.05157 -5.444181,-2.69668 -8.126488,-3.590778 -3.13083,-1.04361 -9.18666,4.711788 -10.772321,6.614588 -1.961989,2.35438 -3.604334,4.98431 -4.913691,7.74851 -2.4205,5.10994 -4.43434,10.65718 -6.236607,16.06399 -0.70408,2.11224 -1.01537,4.27394 -1.511905,6.42559 -0.175214,0.75926 -0.566964,3.04708 -0.566964,2.26786 0,-6.94023 -1.737108,-16.9519 -4.157738,-23.24554 -0.435743,-1.13293 -0.42563,-2.44829 -0.944941,-3.59077 -1.00597,-2.21314 -2.364055,-4.13366 -3.590774,-6.23661 -0.601181,-1.0306 -0.947906,-2.27156 -1.700892,-3.2128 -4.290455,-5.363065 -12.781956,-7.603067 -18.89881,-9.827377 -4.853869,-1.765044 1.517904,0.324861 -3.401786,-1.700893 -3.911531,-1.610631 -7.789429,-0.383603 -10.772321,2.267857 -9.394804,8.350933 -6.254946,27.281113 -3.96875,37.797623 0.582054,2.67744 0.722067,5.49369 1.511905,8.12648 1.069098,3.56366 2.731144,6.97052 4.157738,10.39435 0.82639,1.98334 4.263325,13.14576 5.291666,14.17411 2.267463,2.26746 7.313639,2.61744 10.205358,3.21279 7.693253,1.58391 15.132268,3.69796 22.489581,6.23661 z"
         style="fill:none;stroke:#000000;stroke-width:5;stroke-linecap:butt;stroke-linejoin:miter;stroke-miterlimit:4;stroke-dasharray:none;stroke-opacity:1" />
      <path
         inkscape:connector-curvature="0"
         id="path1406"
         d="m 83.15476,143.16369 c 0.890862,-3.35576 1.457005,-6.7851 2.078871,-10.20536 0.542795,-2.98537 1.855705,-5.79028 3.212795,-8.50446 1.216147,-2.43229 3.066193,-4.9911 4.913691,-6.99256 0.39824,-0.43143 7.254053,-6.65855 8.126493,-4.91369 1.38358,2.76717 0.94494,9.93597 0.94494,13.04018 0,6.92243 0.13299,13.12977 -3.590777,19.0878 -0.929534,1.48725 -1.577631,3.00079 -3.023809,4.15773 -1.3881,1.11048 -3.147677,1.88988 -4.913691,1.88988 -0.644244,0 -1.832234,0.20821 -2.456847,0 -2.616141,-0.87204 -2.915224,-8.15363 -5.291666,-7.55952 z"
         style="fill:none;stroke:#000000;stroke-width:5;stroke-linecap:butt;stroke-linejoin:miter;stroke-miterlimit:4;stroke-dasharray:none;stroke-opacity:1" />
      <path
         inkscape:connector-curvature="0"
         id="path1408"
         d="m 39.120534,103.47619 c -4.973521,1.38672 -7.283828,8.39334 -7.74851,13.04018 -0.689851,6.8985 0.543237,16.8138 3.401785,23.24553 3.533743,7.95092 6.535528,16.63096 16.630951,16.63096 1.295046,0 3.468002,0.4189 4.724704,0 1.466774,-0.48893 3.709652,-8.76966 3.96875,-10.58334 0.893821,-6.25675 3.7563,-10.13238 3.212796,-17.19791 -0.552646,-7.18441 -6.361538,-19.17109 -12.473212,-23.24554 -1.9987,-1.33246 -10.902363,-1.88988 -13.985121,-1.88988"
         style="fill:none;stroke:#000000;stroke-width:5;stroke-linecap:butt;stroke-linejoin:miter;stroke-miterlimit:4;stroke-dasharray:none;stroke-opacity:1" />
      <path
         inkscape:connector-curvature="0"
         id="path1410"
         d="m 67.27976,172.83482 c 5.54147,2.52825 9.916377,1.31033 15.707429,0.15212 1.131517,-0.22631 2.18962,-0.78134 2.806329,-1.60362 0.281117,-0.37482 0.880682,-1.02463 0.935442,-0.93544 0.124915,0.20344 0.137041,0.45736 0.205563,0.68605"
         style="fill:none;stroke:#000000;stroke-width:5;stroke-linecap:butt;stroke-linejoin:miter;stroke-miterlimit:4;stroke-dasharray:none;stroke-opacity:1" />
      <path
         inkscape:connector-curvature="0"
         id="path1412"
         d="m 70.870534,137.87202 c 2.035194,9.47224 3.326784,19.16576 5.669642,28.5372 0.669044,2.67617 -0.503425,5.98571 0.755955,8.50447"
         style="fill:none;stroke:#000000;stroke-width:5;stroke-linecap:butt;stroke-linejoin:miter;stroke-miterlimit:4;stroke-dasharray:none;stroke-opacity:1" />
      <path
         transform="matrix(0.26458333,0,0,0.26458333,0,97)"
         inkscape:connector-curvature="0"
         id="path1414"
         d="m 290.92234,286.23483 c -0.0595,-2.08344 -0.0265,-6.97005 0.0733,-10.85914 0.12633,-4.92377 -0.90111,-11.97915 -3.38337,-23.23351 -3.1404,-14.23829 -8.60634,-42.49475 -15.87051,-82.04335 l -2.26709,-12.34283 2.83778,-13.92114 c 6.59113,-32.33378 27.49018,-83.779135 41.89664,-103.133301 9.95494,-13.373833 26.51695,-27.389153 36.10548,-30.553656 6.70858,-2.2140299 10.62641,-0.8344975 46.78198,16.472708 8.98328,4.300184 11.7723,6.254436 18.22321,12.768924 8.84461,8.931785 13.03278,16.623525 16.05655,29.488418 9.99268,42.514957 1.7694,77.899707 -28.16615,121.198797 -5.54721,8.02354 -13.13946,19.13395 -16.87165,24.68979 -10.52429,15.66672 -13.03772,18.4327 -19.8941,21.89312 -3.5935,1.81364 -9.35234,6.17021 -13.64261,10.32063 -9.10971,8.81279 -23.18987,24.91509 -26.70998,30.546 -3.62964,5.8061 -7.67653,7.92717 -19.79712,10.37615 -14.83759,2.99794 -15.24036,2.95425 -15.37233,-1.66761 z m 65.48912,-86.16405 c 7.17302,-3.51689 10.89216,-7.63327 17.7869,-19.68669 11.62807,-20.32827 13.2215,-29.42314 13.26698,-75.72418 0.0441,-44.919506 -0.87178,-49.673341 -9.05032,-46.97418 -4.55345,1.502775 -17.4255,11.042649 -24.97091,18.50672 -10.41036,10.298135 -20.2529,26.2139 -27.46428,44.41079 -1.49347,3.76858 -4.74346,17.14343 -7.22219,29.7219 -2.47873,12.57846 -4.73868,23.10183 -5.0221,23.38525 -0.28343,0.28343 0.79345,1.06563 2.39308,1.73822 2.30292,0.96831 3.58987,2.87501 6.18181,9.15873 5.24565,12.71723 6.1629,14.37878 9.47734,17.1677 2.96502,2.49489 3.5644,2.6071 10.73848,2.01031 5.50019,-0.45755 9.33413,-1.48319 13.88521,-3.71457 z"
         style="opacity:1;fill:#ff1717;fill-opacity:1;fill-rule:nonzero;stroke:none;stroke-width:18.89763832;stroke-linecap:round;stroke-linejoin:miter;stroke-miterlimit:4;stroke-dasharray:none;stroke-opacity:1" />
      <path
         transform="matrix(0.26458333,0,0,0.26458333,0,97)"
         inkscape:connector-curvature="0"
         id="path1416"
         d="m 267.41509,290.31182 c -1.04341,-0.26778 -12.63492,-4.03982 -25.75889,-8.38231 -25.35055,-8.38804 -57.40778,-16.85359 -76.76579,-20.27201 -21.12952,-3.73124 -28.55041,-6.23613 -33.13566,-11.18478 -2.60254,-2.8088 -4.54814,-7.61211 -12.62164,-31.16049 -3.3334,-9.72272 -9.23964,-25.32362 -13.12498,-34.66867 C 96.216508,161.09265 95.378745,158.38693 92.03366,139.51017 90.409183,130.34304 88.401913,119.62055 87.573059,115.68243 80.034542,79.864758 79.071826,42.684141 85.082644,19.501272 93.045078,-11.208703 116.6557,-30.62678 139.3996,-25.170603 c 2.8501,0.683728 6.68117,2.260511 8.5135,3.503961 1.83233,1.243451 11.94126,5.324225 22.46429,9.068386 23.21899,8.2614636 37.80775,15.049515 47.01725,21.8767966 8.0314,5.9539274 11.53457,10.1002774 15.94886,18.8770984 1.75052,3.48053 4.73539,8.755367 6.63303,11.72186 5.20766,8.14089 9.26017,17.31021 12.11279,27.406769 1.41274,5.000255 3.71301,12.915052 5.1117,17.588452 4.95653,16.56114 9.10717,41.32979 10.17159,60.69837 0.35111,6.38921 2.42489,21.38998 4.60837,33.33503 6.51246,35.62725 11.91826,63.47994 14.50814,74.75129 1.76262,7.67103 2.51865,14.31113 2.73164,23.99154 l 0.29451,13.38493 -10.10153,-0.11759 c -5.55583,-0.0647 -10.95523,-0.33669 -11.99865,-0.60447 z m -53.31768,-66.79749 c 2.82574,-2.82574 7.89075,-15.8325 11.27185,-28.9457 1.66748,-6.46714 3.03178,-12.60329 3.03178,-13.63591 0,-1.03261 2.25161,-9.75233 5.00359,-19.37717 7.93976,-27.76877 8.58622,-38.34664 3.53884,-57.90579 -7.94324,-30.780951 -31.19089,-67.019724 -47.31633,-73.757362 -4.88921,-2.042843 -18.46712,-4.270935 -30.42155,-4.992076 -5.55584,-0.335151 -12.26072,-0.838396 -14.89975,-1.11832 -2.95989,-0.313961 -4.79822,-0.108608 -4.79822,0.53599 0,0.57472 0.74722,1.044945 1.66049,1.044945 0.98016,0 -0.20537,1.424692 -2.89357,3.477282 -12.23424,9.341539 -19.77983,29.050979 -20.7371,54.166336 -1.02364,26.856315 4.19142,57.706775 13.39363,79.232055 11.1355,26.04752 17.73997,37.78303 26.48582,47.06273 11.17366,11.85573 21.89955,15.84905 42.95242,15.99149 10.24553,0.0693 12.12359,-0.17398 13.7281,-1.7785 z"
         style="opacity:1;fill:#ff1717;fill-opacity:1;fill-rule:nonzero;stroke:none;stroke-width:18.89763832;stroke-linecap:round;stroke-linejoin:miter;stroke-miterlimit:4;stroke-dasharray:none;stroke-opacity:1" />
      <path
         transform="matrix(0.26458333,0,0,0.26458333,0,97)"
         inkscape:connector-curvature="0"
         id="path1418"
         d="m 323.83981,647.36437 c -1.57546,-5.13915 -4.08544,-12.07133 -5.57773,-15.40483 -1.4923,-3.3335 -4.87109,-12.19759 -7.50843,-19.69797 -6.70881,-19.07932 -8.84686,-23.98132 -16.84584,-38.62305 -8.46339,-15.49178 -11.17471,-23.14453 -14.5722,-41.13028 -1.42188,-7.52718 -3.67031,-18.45876 -4.99651,-24.29239 -1.3262,-5.83363 -4.49795,-21.51625 -7.04833,-34.85026 -2.55038,-13.33401 -6.26831,-30.60762 -8.26208,-38.3858 -3.58493,-13.98571 -3.63418,-14.46056 -4.45277,-42.93148 -0.45526,-15.83414 -0.55052,-45.74344 -0.21169,-66.46511 0.51429,-31.45256 0.84648,-37.58734 2.0111,-37.14044 7.87025,3.0201 13.97721,4.06804 23.79603,4.08336 6.56295,0.0102 10.86526,0.41762 10.87461,1.0297 0.008,0.55702 0.37276,0.45022 0.80945,-0.23734 0.43669,-0.68756 6.39787,-2.39142 13.24706,-3.78637 12.59902,-2.56598 17.70723,-4.74858 20.04178,-8.56331 0.92095,-1.50485 1.63473,-1.80648 2.52538,-1.06717 0.68287,0.56684 2.29591,1.83295 3.58454,2.81359 2.01275,1.5317 3.19222,5.6246 8.36903,29.04153 3.31435,14.99221 6.73047,31.34967 7.5914,36.34993 0.86092,5.00025 2.15011,11.81878 2.86487,15.15228 0.97708,4.55695 1.26922,19.47132 1.17732,60.10408 -0.10731,47.44829 -0.33072,54.78277 -1.83079,60.10408 -1.48103,5.25379 -1.6924,11.23995 -1.5872,44.95178 l 0.12135,38.89088 -3.26717,12.02896 c -1.79695,6.61594 -3.72369,15.9346 -4.28165,20.70813 -1.13967,9.75031 -4.23991,26.81827 -6.53058,35.95328 -1.40653,5.60909 -6.48563,20.70813 -6.96593,20.70813 -0.1158,0 -1.49956,-4.20476 -3.07502,-9.34391 z"
         style="opacity:1;fill:#17dfff;fill-opacity:1;fill-rule:nonzero;stroke:none;stroke-width:18.89763832;stroke-linecap:round;stroke-linejoin:miter;stroke-miterlimit:4;stroke-dasharray:none;stroke-opacity:1" />
    </g>
  </g>
</svg>
