<?xml version="1.0" encoding="UTF-8" standalone="no"?>
<!-- Created with Inkscape (http://www.inkscape.org/) -->

<svg
   xmlns:dc="http://purl.org/dc/elements/1.1/"
   xmlns:cc="http://creativecommons.org/ns#"
   xmlns:rdf="http://www.w3.org/1999/02/22-rdf-syntax-ns#"
   xmlns:svg="http://www.w3.org/2000/svg"
   xmlns="http://www.w3.org/2000/svg"
   xmlns:sodipodi="http://sodipodi.sourceforge.net/DTD/sodipodi-0.dtd"
   xmlns:inkscape="http://www.inkscape.org/namespaces/inkscape"
   width="210mm"
   height="297mm"
   viewBox="0 0 210 297"
   version="1.1"
   id="svg8"
   sodipodi:docname="sedacka.svg"
   inkscape:version="0.92.4 (5da689c313, 2019-01-14)">
  <defs
     id="defs2" />
  <sodipodi:namedview
     id="base"
     pagecolor="#ffffff"
     bordercolor="#666666"
     borderopacity="1.0"
     inkscape:pageopacity="0.0"
     inkscape:pageshadow="2"
     inkscape:zoom="0.49497475"
     inkscape:cx="411.56453"
     inkscape:cy="217.17572"
     inkscape:document-units="mm"
     inkscape:current-layer="layer1"
     showgrid="false"
     inkscape:window-width="1920"
     inkscape:window-height="1137"
     inkscape:window-x="-8"
     inkscape:window-y="109"
     inkscape:window-maximized="1" />
  <metadata
     id="metadata5">
    <rdf:RDF>
      <cc:Work
         rdf:about="">
        <dc:format>image/svg+xml</dc:format>
        <dc:type
           rdf:resource="http://purl.org/dc/dcmitype/StillImage" />
      </cc:Work>
    </rdf:RDF>
  </metadata>
  <g
     inkscape:label="Vrstva 1"
     inkscape:groupmode="layer"
     id="layer1">
    <g
       id="g911"
       transform="translate(-3.7417734,-0.53453905)">
      <path
         sodipodi:nodetypes="ccccccccccccc"
         inkscape:connector-curvature="0"
         id="path819"
         d="m 6.1971757,185.14645 205.2049543,0.40287 0.30521,-46.82926 c -1.33873,-8.85011 -3.43973,-8.74609 -6.64733,-8.98768 -6.74494,-0.95333 -10.47889,4.55936 -10.5752,8.50782 l -0.19792,-24.49445 c 0.25591,-7.57749 -4.93405,-11.6582 -10.95785,-11.71642 -54.03604,-0.2014 -91.71113,-0.23544 -142.533537,-0.43682 -9.441083,0.0142 -15.805775,3.11316 -15.969115,10.51427 v 28.14389 c -0.993834,-5.39943 -1.52432,-11.26753 -9.373445,-12.13948 -7.5412817,2.28292 -8.1202746,5.63444 -9.3144908,12.06168 z"
         style="fill:none;stroke:#000000;stroke-width:1.87251663;stroke-linecap:butt;stroke-linejoin:round;stroke-miterlimit:4;stroke-dasharray:none;stroke-opacity:1" />
      <path
         inkscape:connector-curvature="0"
         id="path821"
         d="m 24.826169,140.25067 0.166749,22.61525 H 194.81767 l -0.33278,-24.62572"
         style="fill:none;fill-opacity:1;stroke:#000000;stroke-width:1.86957252px;stroke-linecap:butt;stroke-linejoin:miter;stroke-opacity:1" />
      <path
         inkscape:connector-curvature="0"
         id="path823"
         d="m 25.015821,150.56795 56.87775,-0.47158 -0.51982,12.50851"
         style="fill:none;stroke:#000000;stroke-width:1.96072209px;stroke-linecap:butt;stroke-linejoin:miter;stroke-opacity:1" />
      <path
         inkscape:connector-curvature="0"
         id="path823-9"
         d="m 81.893571,150.09637 56.877749,-0.47157 -0.51981,12.5085"
         style="fill:none;stroke:#000000;stroke-width:1.96072209px;stroke-linecap:butt;stroke-linejoin:miter;stroke-opacity:1" />
      <path
         sodipodi:nodetypes="ccc"
         inkscape:connector-curvature="0"
         id="path823-4"
         d="m 138.77132,149.6248 55.83819,-0.34606 0.18705,12.5085"
         style="fill:none;stroke:#000000;stroke-width:1.96072209px;stroke-linecap:butt;stroke-linejoin:miter;stroke-opacity:1" />
      <path
         inkscape:connector-curvature="0"
         id="path867"
         d="m 82.418537,161.45799 c 0.01338,-0.25914 0.116569,-2.69503 0.227543,-5.41307 0.110909,-2.71805 0.207318,-4.94886 0.214124,-4.95734 0.0078,-0.009 0.596182,-0.0233 1.309707,-0.0329 3.258039,-0.0436 53.520489,-0.44034 53.538709,-0.42251 0.0196,0.0192 -0.37867,9.9709 -0.4349,10.86762 l -0.0269,0.42927 H 109.81974 82.392676 Z"
         style="opacity:1;fill:#fc909a;fill-opacity:1;fill-rule:nonzero;stroke:#fc909a;stroke-width:0.04241319;stroke-linecap:round;stroke-linejoin:round;stroke-miterlimit:4;stroke-dasharray:none;stroke-opacity:1" />
      <path
         inkscape:connector-curvature="0"
         id="path869"
         d="m 25.911071,157.4599 c -0.01531,-2.4589 -0.03177,-4.79371 -0.03744,-5.18844 l -0.009,-0.71768 1.88399,-0.0264 c 2.422721,-0.034 53.083202,-0.44756 53.095735,-0.43345 0.0078,0.009 -0.439456,10.78887 -0.448925,10.82631 -0.0013,0.005 -12.254664,0.0113 -27.22938,0.0113 H 25.938773 Z"
         style="opacity:1;fill:#fc909a;fill-opacity:1;fill-rule:nonzero;stroke:#fc909a;stroke-width:0.04241319;stroke-linecap:round;stroke-linejoin:round;stroke-miterlimit:4;stroke-dasharray:none;stroke-opacity:1" />
      <path
         inkscape:connector-curvature="0"
         id="path873"
         d="m 25.889121,148.82603 c -0.192637,-1.37477 -0.126735,-37.06856 0.07065,-38.26966 0.677498,-4.12222 3.892023,-6.60841 9.916231,-7.66947 1.848875,-0.32567 5.908973,-0.32694 100.114568,-0.0313 47.85371,0.15009 48.66239,0.15797 49.97903,0.4884 3.69434,0.92699 6.29047,3.56276 7.05301,7.16076 0.19235,0.90752 0.27867,4.86878 0.42243,19.38528 0.0993,10.03456 0.14963,18.27497 0.1118,18.31203 -0.038,0.0371 -15.89597,0.17337 -35.24023,0.30281 -19.34421,0.12946 -44.11161,0.31286 -55.03865,0.40752 -10.927039,0.0946 -29.231533,0.24614 -40.676662,0.33665 -11.445142,0.0905 -24.362534,0.21044 -28.705321,0.26649 l -7.895985,0.1019 z"
         style="opacity:1;fill:#fc909a;fill-opacity:1;fill-rule:nonzero;stroke:#fc909a;stroke-width:0.16965279;stroke-linecap:round;stroke-linejoin:round;stroke-miterlimit:4;stroke-dasharray:none;stroke-opacity:1" />
      <path
         inkscape:connector-curvature="0"
         id="path875"
         d="m 139.3285,160.95761 c 0.005,-0.53752 0.10122,-3.08284 0.21195,-5.65632 l 0.20112,-4.67901 11.02068,-0.0719 c 6.06138,-0.0396 18.16755,-0.11352 26.90259,-0.16418 l 15.88192,-0.0921 0.0709,1.58557 c 0.0391,0.87206 0.0936,3.49123 0.12146,5.82039 l 0.0504,4.23482 h -27.23599 -27.23599 z"
         style="opacity:1;fill:#fc909a;fill-opacity:1;fill-rule:nonzero;stroke:#fc909a;stroke-width:0.11996266;stroke-linecap:round;stroke-linejoin:round;stroke-miterlimit:4;stroke-dasharray:none;stroke-opacity:1" />
      <path
         transform="scale(0.26458333)"
         inkscape:connector-curvature="0"
         id="path899"
         d="m 507.73817,697.0279 c -109.01786,-0.25548 -261.7843,-0.51189 -339.48098,-0.56981 l -141.266689,-0.10532 0.196549,-85.89286 0.196549,-85.89285 1.935797,-7.01925 c 4.358601,-15.80438 9.409262,-21.77889 23.061631,-27.27998 5.61582,-2.26285 8.770985,-2.40494 14.174065,-0.63832 12.497085,4.08611 17.860078,11.74921 21.985567,31.41485 1.39229,6.63686 1.511406,10.02923 1.847983,52.62984 l 0.359768,45.53571 h 324.56631 324.56631 l -0.0467,-19.82143 c -0.0257,-10.90178 -0.29303,-32.82636 -0.59407,-48.72128 -0.30104,-15.89493 -0.27604,-30.35209 0.0556,-32.12703 2.13779,-11.44335 11.26229,-21.10694 22.68129,-24.02156 4.6935,-1.19798 14.13921,-1.00733 20.43436,0.41244 5.75414,1.29779 9.18264,6.88899 12.20264,19.90051 l 1.76228,7.59264 -0.48678,87.67857 -0.48679,87.67857 -44.72521,-0.14446 c -24.59882,-0.0795 -133.92157,-0.3535 -242.93943,-0.60898 z"
         style="opacity:1;fill:#fc909a;fill-opacity:1;fill-rule:nonzero;stroke:#fc909a;stroke-width:0.71541053;stroke-linecap:round;stroke-linejoin:round;stroke-miterlimit:4;stroke-dasharray:none;stroke-opacity:1" />
    </g>
  </g>
</svg>
