<?xml version="1.0" encoding="UTF-8" standalone="no"?>
<!-- Created with Inkscape (http://www.inkscape.org/) -->

<svg
   xmlns:dc="http://purl.org/dc/elements/1.1/"
   xmlns:cc="http://creativecommons.org/ns#"
   xmlns:rdf="http://www.w3.org/1999/02/22-rdf-syntax-ns#"
   xmlns:svg="http://www.w3.org/2000/svg"
   xmlns="http://www.w3.org/2000/svg"
   xmlns:sodipodi="http://sodipodi.sourceforge.net/DTD/sodipodi-0.dtd"
   xmlns:inkscape="http://www.inkscape.org/namespaces/inkscape"
   width="264mm"
   height="183mm"
   viewBox="0 0 264 183"
   version="1.1"
   id="svg8"
   inkscape:version="0.92.4 (5da689c313, 2019-01-14)"
   sodipodi:docname="obraz2.svg">
  <defs
     id="defs2" />
  <sodipodi:namedview
     id="base"
     pagecolor="#ffffff"
     bordercolor="#666666"
     borderopacity="1.0"
     inkscape:pageopacity="0.0"
     inkscape:pageshadow="2"
     inkscape:zoom="3.6203867"
     inkscape:cx="608.35356"
     inkscape:cy="286.12595"
     inkscape:document-units="mm"
     inkscape:current-layer="layer2"
     showgrid="false"
     inkscape:window-width="1920"
     inkscape:window-height="1137"
     inkscape:window-x="-8"
     inkscape:window-y="-8"
     inkscape:window-maximized="1" />
  <metadata
     id="metadata5">
    <rdf:RDF>
      <cc:Work
         rdf:about="">
        <dc:format>image/svg+xml</dc:format>
        <dc:type
           rdf:resource="http://purl.org/dc/dcmitype/StillImage" />
        <dc:title />
      </cc:Work>
    </rdf:RDF>
  </metadata>
  <g
     inkscape:label="Vrstva 1"
     inkscape:groupmode="layer"
     id="layer1"
     transform="translate(0,-114)"
     sodipodi:insensitive="true">
    <path
       style="fill:none;stroke:#c1c9c4;stroke-width:3.00173545;stroke-linecap:round;stroke-linejoin:miter;stroke-miterlimit:4;stroke-dasharray:none;stroke-opacity:1"
       d="m 130.51077,128.20544 12.75432,-5.05614"
       id="path824"
       inkscape:connector-curvature="0"
       sodipodi:nodetypes="cc" />
    <path
       style="fill:none;stroke:#363636;stroke-width:3.00173545;stroke-linecap:butt;stroke-linejoin:miter;stroke-miterlimit:4;stroke-dasharray:none;stroke-opacity:1"
       d="m 34.141528,157.97165 96.317692,-36.70504 95.23198,35.43992"
       id="path818"
       inkscape:connector-curvature="0"
       sodipodi:nodetypes="ccc" />
    <rect
       style="opacity:1;fill:#faf9ab;fill-opacity:1;fill-rule:nonzero;stroke:#62570d;stroke-width:10.00578499;stroke-linecap:butt;stroke-linejoin:miter;stroke-miterlimit:4;stroke-dasharray:none;stroke-opacity:1"
       id="rect815"
       width="253.99429"
       height="134.71829"
       x="5.0028925"
       y="157.27765"
       ry="0"
       rx="0" />
    <path
       style="fill:none;stroke:#c1c9c4;stroke-width:4.00231409;stroke-linecap:round;stroke-linejoin:miter;stroke-miterlimit:4;stroke-dasharray:none;stroke-opacity:1"
       d="m 129.82671,116.02964 0.37799,11.73108"
       id="path822"
       inkscape:connector-curvature="0" />
    <path
       style="fill:none;stroke:#544b0b;stroke-width:1.50086772;stroke-linecap:round;stroke-linejoin:bevel;stroke-miterlimit:4;stroke-dasharray:none;stroke-opacity:1"
       d="m 254.55606,161.74777 8.66963,-8.70371"
       id="path826"
       inkscape:connector-curvature="0"
       sodipodi:nodetypes="cc" />
    <path
       style="fill:none;stroke:#544b0b;stroke-width:1.50086772;stroke-linecap:round;stroke-linejoin:bevel;stroke-miterlimit:4;stroke-dasharray:none;stroke-opacity:1"
       d="m 263.22773,296.24197 -8.66963,-8.70371"
       id="path826-9"
       inkscape:connector-curvature="0"
       sodipodi:nodetypes="cc" />
    <path
       style="fill:none;stroke:#544b0b;stroke-width:1.50086772;stroke-linecap:round;stroke-linejoin:bevel;stroke-miterlimit:4;stroke-dasharray:none;stroke-opacity:1"
       d="M 0.818408,296.19441 9.488043,287.4907"
       id="path826-94"
       inkscape:connector-curvature="0"
       sodipodi:nodetypes="cc" />
    <path
       style="fill:none;stroke:#544b0b;stroke-width:1.50086772;stroke-linecap:round;stroke-linejoin:bevel;stroke-miterlimit:4;stroke-dasharray:none;stroke-opacity:1"
       d="M 9.455825,161.77141 0.78619,153.0677"
       id="path826-5"
       inkscape:connector-curvature="0"
       sodipodi:nodetypes="cc" />
  </g>
  <g
     inkscape:groupmode="layer"
     id="layer2"
     inkscape:label="obsah obrazu">
    <text
       xml:space="preserve"
       style="font-style:normal;font-variant:normal;font-weight:normal;font-stretch:normal;font-size:65.9197998px;line-height:1.25;font-family:sans-serif;-inkscape-font-specification:sans-serif;letter-spacing:0px;word-spacing:0px;fill:#000000;fill-opacity:1;stroke:none;stroke-width:2.47199225"
       x="-244.6431"
       y="-44.995544"
       id="text876"
       transform="scale(0.71295098,1.402621)"><tspan
         sodipodi:role="line"
         id="tspan874"
         x="-244.6431"
         y="-44.995544"
         style="font-style:normal;font-variant:normal;font-weight:normal;font-stretch:normal;font-family:sans-serif;-inkscape-font-specification:sans-serif;stroke-width:2.47199225">POZOR 2 VRSTVY ZMEN JI</tspan></text>
    <path
       style="fill:none;stroke:#000000;stroke-width:1;stroke-linecap:butt;stroke-linejoin:miter;stroke-opacity:1;stroke-miterlimit:4;stroke-dasharray:none"
       d="m 128.13393,164.85715 c -7.67172,-8.67184 -1.47236,-44.86636 7.9375,-48.00298 3.63462,-1.21154 9.225,0.23793 12.85119,0.75595 13.47016,1.92431 22.01463,19.40488 24.19047,31.37203 0.44797,2.46378 2.72314,18.29319 3.77977,17.76488"
       id="path878"
       inkscape:connector-curvature="0" />
    <path
       style="fill:none;stroke:#000000;stroke-width:1;stroke-linecap:butt;stroke-linejoin:miter;stroke-opacity:1;stroke-miterlimit:4;stroke-dasharray:none"
       d="m 148.16666,116.85417 c -6.3046,-2.20803 -9.55657,-2.91279 -11.33928,-9.4494 -1.72591,-6.32833 -9.76259,-12.797201 -8.31548,-20.032742 1.11124,-5.556176 10.08513,-3.652124 13.60715,-2.645834 6.62374,1.892499 13.41265,1.76022 19.27678,5.669643 2.91746,1.944975 -6.26609,22.678573 -8.69345,22.678573 -3.42949,0 -4.11984,3.57182 -4.53572,3.77976 -1.1269,0.56345 -2.58449,-0.39842 -3.77976,0"
       id="path880"
       inkscape:connector-curvature="0" />
    <path
       style="fill:none;stroke:#000000;stroke-width:1;stroke-linecap:butt;stroke-linejoin:miter;stroke-opacity:1;stroke-miterlimit:4;stroke-dasharray:none"
       d="m 120.5744,88.505958 c 8.335,3.267106 17.30734,2.267857 26.08036,2.267857 5.79564,0 11.59127,0 17.3869,0 12.13245,0 14.71301,3.626281 16.25298,-8.693454 0.10474,-0.837875 1.72192,-4.703681 1.13393,-5.291667 -2.57675,-2.576742 -26.95012,0.150347 -27.59226,-1.133927 -1.84706,-3.694121 7.61597,-15.730191 -0.75595,-18.520833 -6.5746,-2.191533 -6.97852,-1.44063 -13.60715,-2.645834 -1.62628,-0.29569 -3.26358,-0.755951 -4.91369,-0.755951 -0.37797,0 -1.13393,0.377976 -1.13393,0 0,-1.642737 2.24742,2.56405 2.64584,4.157736 0.57381,2.295255 0.29469,12.892834 -1.88988,13.985119 -0.0345,0.01728 -8.88425,-0.850265 -9.82738,-0.755952 -1.48153,0.148153 -6.52655,1.234879 -7.55953,2.267857 -0.76129,0.761289 0.37798,12.23154 0.37798,14.363094 1.13393,0.251985 2.26785,0.50397 3.40178,0.755955 z"
       id="path882"
       inkscape:connector-curvature="0" />
    <path
       style="fill:none;stroke:#000000;stroke-width:2;stroke-linecap:butt;stroke-linejoin:miter;stroke-opacity:1;stroke-miterlimit:4;stroke-dasharray:none"
       d="m 34.773809,119.87798 c 8.678687,-0.54504 16.879765,-2.64583 25.702381,-2.64583 1.711317,0 20.065333,0.34538 20.410715,0 1.507704,-1.50771 2.370415,-20.199815 2.645833,-22.678574 1.329934,-11.969409 4.302739,-16.137297 -1.889882,-26.458333 -2.029364,-3.382272 -3.897921,-5.83502 -7.937499,-7.181548 -1.275845,-0.425281 -1.773529,1.075753 -2.645834,1.511905 -6.328484,3.164242 -13.703884,5.35795 -20.410714,7.9375 -1.224706,0.471041 -15.875,7.713985 -15.875,8.315476 0,1.304835 9.89516,0.755952 10.205357,0.755952 10.139034,0 20.114429,-0.377976 30.238094,-0.377976 2.497476,0 14.089083,2.302512 8.315478,0.377976"
       id="path884"
       inkscape:connector-curvature="0" />
    <path
       style="fill:none;stroke:#000000;stroke-width:2;stroke-linecap:butt;stroke-linejoin:miter;stroke-opacity:1;stroke-miterlimit:4;stroke-dasharray:none"
       d="m 34.773809,80.190482 c 0.348083,3.494884 -0.28017,6.87488 -0.755952,10.205355 -0.820801,5.745599 -4.03606,15.740383 -1.13393,21.544643 0.948293,1.89658 1.511906,3.95922 1.511906,6.04762 0,1.01578 0.377976,4.03959 0.377976,3.02381 0,-0.37798 0,-0.75596 0,-1.13393"
       id="path886"
       inkscape:connector-curvature="0" />
    <path
       style="fill:none;stroke:#000000;stroke-width:2;stroke-linecap:butt;stroke-linejoin:miter;stroke-opacity:1;stroke-miterlimit:4;stroke-dasharray:none"
       d="m 63.122023,94.1756 c -2.333804,-2.843228 -4.937,-3.000502 -7.559524,-0.377976 -2.155293,2.155291 -3.89905,4.018341 -5.291666,6.803566 -7.831868,15.66374 8.600773,8.15376 12.095239,0 0.693623,-1.618452 2.76394,-2.551373 2.267855,-4.535708 -0.546921,-2.187692 -3.626848,-2.947353 -5.291667,-3.779764"
       id="path888"
       inkscape:connector-curvature="0" />
    <path
       style="fill:none;stroke:#000000;stroke-width:2;stroke-linecap:butt;stroke-linejoin:miter;stroke-opacity:1;stroke-miterlimit:4;stroke-dasharray:none"
       d="m 53.294642,97.955361 c 3.338594,2.829669 6.702382,2.973219 10.583333,4.913689"
       id="path890"
       inkscape:connector-curvature="0" />
    <path
       style="fill:none;stroke:#000000;stroke-width:2;stroke-linecap:butt;stroke-linejoin:miter;stroke-opacity:1;stroke-miterlimit:4;stroke-dasharray:none"
       d="m 63.122023,94.1756 c -4.603078,0.977979 -10.150628,9.93428 -12.85119,13.98512"
       id="path892"
       inkscape:connector-curvature="0" />
    <path
       style="fill:none;stroke:#000000;stroke-width:1;stroke-linecap:butt;stroke-linejoin:miter;stroke-opacity:1;stroke-miterlimit:4;stroke-dasharray:none"
       d="m 139.47321,105.89286 c -1.81238,3.19504 -3.40178,7.19624 -3.40178,10.96131 0,2.79341 -1.62075,5.66964 -0.75596,5.66964 4.21516,0 7.9861,-7.96179 11.71727,-9.82738 0.33559,-0.16779 0.076,8.54246 1.13392,9.07143 0.70393,0.35197 3.27503,-4.40895 3.77977,-4.91369 0.95927,-0.95928 2.17972,-2.79075 3.40178,-3.40179 1.53762,-0.76881 2.04491,1.80277 2.64584,0 2.30057,-6.90171 -6.86082,-7.39915 -10.96131,-9.4494"
       id="path894"
       inkscape:connector-curvature="0" />
    <path
       style="fill:none;stroke:#000000;stroke-width:1;stroke-linecap:butt;stroke-linejoin:miter;stroke-opacity:1;stroke-miterlimit:4;stroke-dasharray:none"
       d="m 162.15178,97.577385 c -1.04497,2.689915 -0.20974,8.588585 -4.53571,6.425595"
       id="path900"
       inkscape:connector-curvature="0" />
    <path
       style="fill:none;stroke:#000000;stroke-width:1;stroke-linecap:butt;stroke-linejoin:miter;stroke-opacity:1;stroke-miterlimit:4;stroke-dasharray:none"
       d="m 130.77976,96.065482 c -1.5479,1.735066 -2.11266,2.403006 -2.64583,4.535708 -1.20755,4.83018 3.51721,0.60593 6.42559,2.26786 1.66979,0.95417 3.27579,2.01587 4.91369,3.02381"
       id="path902"
       inkscape:connector-curvature="0" />
    <path
       style="fill:none;stroke:#000000;stroke-width:1;stroke-linecap:butt;stroke-linejoin:miter;stroke-opacity:1;stroke-miterlimit:4;stroke-dasharray:none"
       d="m 144.3869,116.85417 c -3.21935,2.76605 -3.40178,4.58584 -3.40178,8.31548 0,5.39652 -1.29262,12.59442 0,17.76488 0.60775,2.43099 3.40178,3.63548 3.40178,6.80357 0,2.65662 1.09986,5.32573 1.13393,5.29167 1.78654,-1.78654 4.29987,-4.29987 6.4256,-6.4256 0.13989,-0.1399 -1.51191,-3.36266 -1.51191,-4.91369 0,-1.66688 0.55441,-25.33278 0,-25.70238 -0.70323,-0.46882 -1.51191,-0.75595 -2.26786,-1.13393"
       id="path904"
       inkscape:connector-curvature="0" />
    <ellipse
       style="opacity:1;fill:#faf9ab;fill-opacity:1;fill-rule:nonzero;stroke:#000000;stroke-width:0.68902981;stroke-linecap:round;stroke-linejoin:bevel;stroke-miterlimit:4;stroke-dasharray:none;stroke-opacity:1"
       id="path2128"
       cx="138.91992"
       cy="94.333771"
       rx="2.4434021"
       ry="0.86860359" />
    <ellipse
       style="opacity:1;fill:#faf9ab;fill-opacity:1;fill-rule:nonzero;stroke:#000000;stroke-width:0.68902981;stroke-linecap:round;stroke-linejoin:bevel;stroke-miterlimit:4;stroke-dasharray:none;stroke-opacity:1"
       id="path2128-0"
       cx="152.81841"
       cy="94.261383"
       rx="2.4434021"
       ry="0.86860359" />
  </g>
</svg>
